# xmcd CD database file
#
# Track frame offsets:
#	150
#	32367
#	59722
#	73545
#	111485
#	148145
#	176960
#	201628
#
# Disc length: 3052 seconds
#
# Revision: 0
# Processed by: cddbd v1.5.2PL0 Copyright (c) Steve Scherf et al.
# Submitted via: CDex 1.70beta2
#
DISCID=850bea08
DTITLE=New Age Harmony - Healing Sounds
DYEAR=2006
DGENRE=New Age
TTITLE0=I
TTITLE1=II
TTITLE2=III
TTITLE3=IV
TTITLE4=V
TTITLE5=Lone Dragon
TTITLE6=Bridge To Heaven
TTITLE7=Hayabusa
EXTD=YEAR: 2006
EXTT0=
EXTT1=
EXTT2=
EXTT3=
EXTT4=
EXTT5=
EXTT6=
EXTT7=
PLAYORDER=
